<svg width="25" height="25" viewBox="0 0 25 25" fill="none" xmlns="http://www.w3.org/2000/svg">
<path d="M9.90625 6.54688C9.79687 6.56641 9.69922 6.6211 9.625 6.70313L4.17187 12.1406L3.82812 12.5L4.17187 12.8594L9.625 18.2969C9.74609 18.4453 9.93945 18.5137 10.127 18.4707C10.3125 18.4277 10.459 18.2813 10.502 18.0957C10.5449 17.9082 10.4766 17.7149 10.3281 17.5938L5.73437 13H20.5C20.6797 13.002 20.8477 12.9082 20.9395 12.752C21.0293 12.5957 21.0293 12.4043 20.9395 12.2481C20.8477 12.0918 20.6797 11.9981 20.5 12H5.73437L10.3281 7.40626C10.4902 7.25587 10.5332 7.01759 10.4355 6.82032C10.3398 6.6211 10.123 6.51173 9.90625 6.54688Z" fill="white"/>
</svg>
